<?xml version="1.0" encoding="utf-8"?>
<!-- Generator: Adobe Illustrator 25.2.0, SVG Export Plug-In . SVG Version: 6.00 Build 0)  -->
<svg version="1.1" id="Layer_1" xmlns="http://www.w3.org/2000/svg" xmlns:xlink="http://www.w3.org/1999/xlink" x="0px" y="0px"
	 viewBox="0 0 48 48" style="enable-background:new 0 0 48 48;" xml:space="preserve">
<style type="text/css">
	.st0{display:none;}
	.st1{display:inline;fill:#1D1D1B;}
	.st2{fill:#FCAD10;}
	.st3{fill:#333333;}
</style>
<g>
	<g>
		<g>
			<g>
				<path class="st2" d="M40,22.7c-0.1,0-0.2,0-0.3,0c-0.8-0.2-1.3-1-1.1-1.8c0.2-1,0.4-2,0.4-3c0-2.7-1-5.7-2.6-8.3
					C35,7.6,33.4,6.1,31.5,5c-2.2-1.3-4.7-2-7.5-2c-2.8,0-5.3,0.7-7.5,2c-0.7,0.4-1.6,0.2-2.1-0.5C14,3.7,14.3,2.8,15,2.4
					C17.7,0.8,20.7,0,24,0c3.3,0,6.4,0.8,9,2.4c2.3,1.4,4.2,3.2,5.8,5.5c2,3,3.1,6.6,3.1,9.9c0,1.2-0.1,2.5-0.4,3.7
					C41.3,22.2,40.7,22.7,40,22.7z"/>
			</g>
			<g>
				<g>
					<polygon class="st2" points="36.1,18.3 37.5,27.2 44.5,21.5 					"/>
				</g>
			</g>
		</g>
		<g>
			<g>
				<path class="st2" d="M30.8,41.9H17.2c-0.8,0-1.5-0.7-1.5-1.5c0-2.5-1.9-5.2-3.8-8.2c-0.9-1.4-1.9-2.8-2.7-4.3
					c-2.1-3.6-3.1-6.8-3.1-10.1c0-1.1,0.1-2.3,0.4-3.5c0.2-0.8,1-1.3,1.8-1.1c0.8,0.2,1.3,1,1.1,1.8c-0.2,1-0.3,1.9-0.3,2.8
					c0,2.7,0.9,5.4,2.7,8.6c0.8,1.4,1.7,2.8,2.6,4.1c1.9,2.8,3.7,5.5,4.2,8.3h10.8c0.5-2.8,2.3-5.5,4.2-8.3c0.5-0.7,1.4-0.9,2.1-0.4
					c0.7,0.5,0.9,1.4,0.4,2.1c-2,2.9-3.8,5.7-3.8,8.2C32.3,41.2,31.6,41.9,30.8,41.9z"/>
			</g>
			<g>
				<g>
					<polygon class="st2" points="11.8,17.6 10.5,8.7 3.5,14.3 					"/>
				</g>
			</g>
		</g>
		<g>
			<path class="st3" d="M27.8,48h-7.6c-0.8,0-1.5-0.7-1.5-1.5s0.7-1.5,1.5-1.5h7.6c0.8,0,1.5,0.7,1.5,1.5S28.6,48,27.8,48z"/>
		</g>
		<g>
			<path class="st3" d="M27.8,14.7h-7.6c-0.8,0-1.5-0.7-1.5-1.5c0-0.8,0.7-1.5,1.5-1.5h7.6c0.8,0,1.5,0.7,1.5,1.5
				C29.3,14,28.6,14.7,27.8,14.7z"/>
		</g>
		<g>
			<path class="st3" d="M27.8,27.5h-7.6c-0.8,0-1.5-0.7-1.5-1.5s0.7-1.5,1.5-1.5h7.6c0.8,0,1.5,0.7,1.5,1.5S28.6,27.5,27.8,27.5z"/>
		</g>
		<g>
			<path class="st3" d="M30.8,21.1H17.2c-0.8,0-1.5-0.7-1.5-1.5c0-0.8,0.7-1.5,1.5-1.5h13.6c0.8,0,1.5,0.7,1.5,1.5
				C32.3,20.4,31.7,21.1,30.8,21.1z"/>
		</g>
	</g>
</g>
</svg>
